<?xml version="1.0" encoding="utf-8"?>
<!-- Generator: Adobe Illustrator 16.0.0, SVG Export Plug-In . SVG Version: 6.00 Build 0)  -->
<!DOCTYPE svg PUBLIC "-//W3C//DTD SVG 1.1//EN" "http://www.w3.org/Graphics/SVG/1.1/DTD/svg11.dtd">
<svg version="1.1" id="图层_1" xmlns="http://www.w3.org/2000/svg" xmlns:xlink="http://www.w3.org/1999/xlink" x="0px" y="0px"
	 width="252.117px" height="77.236px" viewBox="0 0 252.117 77.236" enable-background="new 0 0 252.117 77.236"
	 xml:space="preserve">
<g>
	<path fill="#FFFFFF" d="M81.347,45.113l8.63-32.473c3.897,0,8.136-0.29,12.715-0.871L93.83,45.113H81.347z M99.662,0
		c3.876,0,5.438,1.418,4.685,4.257c-0.754,2.837-3.07,4.256-6.946,4.256s-5.437-1.418-4.683-4.256C93.472,1.418,95.786,0,99.662,0z"
		/>
	<path fill="#FFFFFF" d="M134.699,12.931c5.192,2.343,7.193,5.75,6.005,10.222c-0.782,2.946-2.91,5.461-6.382,7.546
		c-3.475,2.085-7.272,3.127-11.4,3.127c-1.596,0-3.699-0.192-6.31-0.58c-1.802,0.86-2.817,1.72-3.046,2.58
		c-0.313,1.183,0.498,1.773,2.436,1.773c0.501,0,1.527-0.042,3.079-0.128c3.916-0.236,6.751-0.355,8.507-0.355
		c8.3,0,11.661,2.967,10.084,8.9c-1.908,7.18-9.736,10.769-23.486,10.769c-10.237,0-14.815-2.031-13.735-6.094
		c0.623-2.344,3.121-3.934,7.492-4.773c-4.131-1.095-5.86-2.912-5.186-5.45c0.84-3.159,4.213-5.943,10.119-8.351
		c-4.16-1.762-5.677-4.761-4.553-8.997c0.857-3.225,2.979-5.928,6.364-8.11c3.383-2.181,7.15-3.273,11.301-3.273
		c1.413,0,3.234,0.14,5.463,0.419c0.085-0.753,0.187-1.343,0.302-1.773c1.13-4.256,4.055-6.385,8.775-6.385
		c3.762,0,5.246,1.495,4.452,4.482c-0.606,2.278-2.037,3.418-4.294,3.418c-0.753,0-1.58-0.237-2.481-0.71
		c-0.557-0.301-0.992-0.462-1.307-0.483C135.843,10.641,135.11,11.383,134.699,12.931z M117.545,47.24
		c-5.814,0-9.004,1.064-9.569,3.193c-0.561,2.105,1.975,3.16,7.607,3.16c6.543,0,10.128-1.182,10.758-3.547
		C126.837,48.175,123.905,47.24,117.545,47.24z M126.473,14.93c-2.325,0-4.214,2.73-5.665,8.19
		c-1.331,5.009-0.787,7.513,1.629,7.513c2.212,0,3.908-2.225,5.091-6.675C129.128,17.94,128.776,14.93,126.473,14.93z"/>
	<path fill="#FFFFFF" d="M168.386,11.77c11.401,0,15.593,5.675,12.576,17.026c-3.018,11.35-10.226,17.026-21.626,17.026
		c-11.423,0-15.625-5.676-12.609-17.026C149.744,17.445,156.965,11.77,168.386,11.77z M167.59,14.639
		c-2.76,0-5.394,4.72-7.901,14.157c-2.509,9.438-2.383,14.156,0.377,14.156c2.781,0,5.425-4.719,7.934-14.156
		C170.507,19.359,170.371,14.639,167.59,14.639z"/>
	<path fill="#FFFFFF" d="M218.029,20.96l-6.32,1c1.291-4.858-0.455-7.288-5.246-7.288c-2.938,0-4.713,1.14-5.318,3.418
		c-0.445,1.676,1.605,3.482,6.152,5.417c6.957,2.989,9.826,6.782,8.604,11.383c-1.949,7.331-7.859,10.995-17.73,10.995
		c-10.445,0-14.69-3.665-12.743-10.995l6.756-1.226c-0.281,0.709-0.503,1.376-0.668,2c-0.503,1.892-0.103,3.536,1.202,4.934
		c1.305,1.397,3.098,2.096,5.377,2.096c3.01,0,4.834-1.203,5.475-3.612c0.428-1.611-1.525-3.396-5.863-5.352
		c-6.53-2.966-9.178-6.771-7.944-11.416c0.816-3.074,2.889-5.594,6.217-7.561c3.326-1.967,7.189-2.951,11.59-2.951
		C215.388,11.802,218.876,14.855,218.029,20.96z"/>
	<path fill="#FFFFFF" d="M254.244,20.96l-6.318,1c1.291-4.858-0.455-7.288-5.246-7.288c-2.939,0-4.713,1.14-5.318,3.418
		c-0.445,1.676,1.605,3.482,6.152,5.417c6.957,2.989,9.826,6.782,8.604,11.383c-1.949,7.331-7.859,10.995-17.73,10.995
		c-10.445,0-14.689-3.665-12.742-10.995l6.754-1.226c-0.279,0.709-0.502,1.376-0.668,2c-0.502,1.892-0.102,3.536,1.203,4.934
		s3.096,2.096,5.377,2.096c3.01,0,4.834-1.203,5.475-3.612c0.428-1.611-1.525-3.396-5.863-5.352
		c-6.529-2.966-9.178-6.771-7.943-11.416c0.816-3.074,2.889-5.594,6.217-7.561c3.326-1.967,7.189-2.951,11.592-2.951
		C251.605,11.802,255.093,14.855,254.244,20.96z"/>
	<path fill="#E60012" d="M48.772,9.898c-0.831,0-1.648,0.05-2.455,0.135c1.301,2.021,2.295,4.418,2.734,7.246
		C51.032,30,46.97,41.123,43.241,52.428c-0.244,0.74-0.492,1.469-0.74,2.193c2.238,0.72,4.614,1.119,7.08,1.119
		c12.658,0,22.741-10.263,22.518-22.921C71.875,20.159,61.431,9.898,48.772,9.898z M43.265,17.279
		c-1.497-9.61-9.27-14.371-14.446-15.546C24.29,0.705,18.716,1.551,18.716,1.551S23.817,7.62,19.4,26.667
		c-1.858,8.014-5.173,17.685-8.848,26.792C5.443,66.118,0,77.236,0,77.236l27.422-0.019c0,0,5.479-10.979,10.033-24.789
		C41.182,41.123,45.245,30,43.265,17.279z"/>
</g>
</svg>
